<?xml version="1.0" encoding="UTF-8" standalone="no"?>
<svg
   xmlns:dc="http://purl.org/dc/elements/1.1/"
   xmlns:cc="http://creativecommons.org/ns#"
   xmlns:rdf="http://www.w3.org/1999/02/22-rdf-syntax-ns#"
   xmlns:svg="http://www.w3.org/2000/svg"
   xmlns="http://www.w3.org/2000/svg"
   id="svg2451"
   viewBox="0, 0, 128, 128"
   height="128"
   width="128"
   y="0px"
   x="0px"
   version="1.1">
  <metadata
     id="metadata2455">
    <rdf:RDF>
      <cc:Work
         rdf:about="">
        <dc:format>image/svg+xml</dc:format>
        <dc:type
           rdf:resource="http://purl.org/dc/dcmitype/StillImage" />
        <dc:title></dc:title>
      </cc:Work>
    </rdf:RDF>
  </metadata>
  <g
     transform="matrix(1.2705,0,0,1.2705,-28.882197,-27.900779)"
     id="Background">
    <rect
       style="fill:#000000;fill-opacity:0"
       id="rect2434"
       height="128"
       width="128"
       y="0"
       x="0" />
  </g>
  <g
     id="g2447">
    <g
       style="fill:#ebeded;fill-opacity:1"
       id="g3681"
       transform="matrix(0.2025,0,0,0.2025,11.313137,17.859557)" />
    <g
       style="fill:#ebeded;fill-opacity:1"
       id="g3683"
       transform="matrix(0.2025,0,0,0.2025,11.313137,17.859557)" />
    <g
       style="fill:#ebeded;fill-opacity:1"
       id="g3685"
       transform="matrix(0.2025,0,0,0.2025,11.313137,17.859557)" />
    <g
       style="fill:#ebeded;fill-opacity:1"
       id="g3687"
       transform="matrix(0.2025,0,0,0.2025,11.313137,17.859557)" />
    <g
       style="fill:#ebeded;fill-opacity:1"
       id="g3689"
       transform="matrix(0.2025,0,0,0.2025,11.313137,17.859557)" />
    <g
       style="fill:#ebeded;fill-opacity:1"
       id="g3691"
       transform="matrix(0.2025,0,0,0.2025,11.313137,17.859557)" />
    <g
       style="fill:#ebeded;fill-opacity:1"
       id="g3693"
       transform="matrix(0.2025,0,0,0.2025,11.313137,17.859557)" />
    <g
       style="fill:#ebeded;fill-opacity:1"
       id="g3695"
       transform="matrix(0.2025,0,0,0.2025,11.313137,17.859557)" />
    <g
       style="fill:#ebeded;fill-opacity:1"
       id="g3697"
       transform="matrix(0.2025,0,0,0.2025,11.313137,17.859557)" />
    <g
       style="fill:#ebeded;fill-opacity:1"
       id="g3699"
       transform="matrix(0.2025,0,0,0.2025,11.313137,17.859557)" />
    <g
       style="fill:#ebeded;fill-opacity:1"
       id="g3701"
       transform="matrix(0.2025,0,0,0.2025,11.313137,17.859557)" />
    <g
       style="fill:#ebeded;fill-opacity:1"
       id="g3703"
       transform="matrix(0.2025,0,0,0.2025,11.313137,17.859557)" />
    <g
       style="fill:#ebeded;fill-opacity:1"
       id="g3705"
       transform="matrix(0.2025,0,0,0.2025,11.313137,17.859557)" />
    <g
       style="fill:#ebeded;fill-opacity:1"
       id="g3707"
       transform="matrix(0.2025,0,0,0.2025,11.313137,17.859557)" />
    <g
       style="fill:#ebeded;fill-opacity:1"
       id="g3709"
       transform="matrix(0.2025,0,0,0.2025,11.313137,17.859557)" />
    <g
       style="fill:#737370;fill-opacity:1;stroke:none"
       id="g599"
       transform="matrix(0.51884044,0,0,0.51884044,-65.847195,-54.488427)">
      <polygon
         transform="matrix(0.1356032,0.2932032,-0.00416466,0.97115047,323.55068,-54.480993)"
         id="polygon597"
         points="184.642,143.629 340.526,71.579 340.526,274.219 184.642,357.35 "
         style="fill:#737370;fill-opacity:1;stroke:none" />
      <rect
         y="139.58749"
         x="133.37123"
         height="207.25262"
         width="207.25262"
         id="rect1581"
         style="fill:#737370;fill-opacity:1;stroke:none;stroke-width:2.33212352;stroke-opacity:1" />
      <polygon
         transform="matrix(-0.31823348,-0.13560319,-0.97038174,0.00416466,540.83715,157.00748)"
         id="polygon597-3"
         points="340.526,274.219 184.642,357.35 184.642,143.629 340.526,71.579 "
         style="fill:#737370;fill-opacity:1;stroke:none" />
    </g>
    <g
       id="g601"
       transform="matrix(0.3375,0,0,0.3375,136.96358,-2.8188527)" />
    <g
       id="g603"
       transform="matrix(0.3375,0,0,0.3375,136.96358,-2.8188527)" />
    <g
       id="g605"
       transform="matrix(0.3375,0,0,0.3375,136.96358,-2.8188527)" />
    <g
       id="g607"
       transform="matrix(0.3375,0,0,0.3375,136.96358,-2.8188527)" />
    <g
       id="g609"
       transform="matrix(0.3375,0,0,0.3375,136.96358,-2.8188527)" />
    <g
       id="g611"
       transform="matrix(0.3375,0,0,0.3375,136.96358,-2.8188527)" />
    <g
       id="g613"
       transform="matrix(0.3375,0,0,0.3375,136.96358,-2.8188527)" />
    <g
       id="g615"
       transform="matrix(0.3375,0,0,0.3375,136.96358,-2.8188527)" />
    <g
       id="g617"
       transform="matrix(0.3375,0,0,0.3375,136.96358,-2.8188527)" />
    <g
       id="g619"
       transform="matrix(0.3375,0,0,0.3375,136.96358,-2.8188527)" />
    <g
       id="g621"
       transform="matrix(0.3375,0,0,0.3375,136.96358,-2.8188527)" />
    <g
       id="g623"
       transform="matrix(0.3375,0,0,0.3375,136.96358,-2.8188527)" />
    <g
       id="g625"
       transform="matrix(0.3375,0,0,0.3375,136.96358,-2.8188527)" />
    <g
       id="g627"
       transform="matrix(0.3375,0,0,0.3375,136.96358,-2.8188527)" />
    <g
       id="g629"
       transform="matrix(0.3375,0,0,0.3375,136.96358,-2.8188527)" />
    <g
       style="fill:#82d1f5;fill-opacity:1"
       id="g17058"
       transform="matrix(0.2,0,0,0.2,6.0759047,20.198775)">
      <g
         style="fill:#82d1f5;fill-opacity:1"
         id="g17060">
        <polygon
           style="fill:#82d1f5;fill-opacity:1"
           id="polygon17062"
           points="240.999,408.687 240.999,250.664 113.374,184.737 113.374,342.76 " />
      </g>
    </g>
    <g
       style="fill:#82d1f5;fill-opacity:1"
       id="g17064"
       transform="matrix(0.2,0,0,0.2,6.0759047,20.198775)">
      <g
         style="fill:#82d1f5;fill-opacity:1"
         id="g17066">
        <polygon
           style="fill:#82d1f5;fill-opacity:1"
           id="polygon17068"
           points="255.999,224.646 380.941,160.105 255.999,95.564 131.057,160.105 " />
      </g>
    </g>
    <g
       style="fill:#82d1f5;fill-opacity:1"
       id="g17070"
       transform="matrix(0.2,0,0,0.2,6.0759047,20.198775)">
      <g
         style="fill:#82d1f5;fill-opacity:1"
         id="g17072">
        <polygon
           style="fill:#82d1f5;fill-opacity:1"
           id="polygon17074"
           points="398.626,342.76 398.626,184.737 270.999,250.664 270.999,408.687 " />
      </g>
    </g>
    <g
       style="fill:#82d1f5;fill-opacity:1"
       id="g17076"
       transform="matrix(0.2,0,0,0.2,6.0759047,20.198775)">
      <g
         style="fill:#82d1f5;fill-opacity:1"
         id="g17078">
        <path
           style="fill:#82d1f5;fill-opacity:1"
           id="path17080"
           d="m 461.957,333.828 0,-155.656 c 15.311,-6.011 26.185,-20.927 26.185,-38.344 0,-22.709 -18.476,-41.185 -41.186,-41.185 -10.402,0 -19.909,3.884 -27.166,10.269 L 296.962,45.463 c 0.146,-1.406 0.222,-2.833 0.222,-4.277 C 297.186,18.476 278.71,0 255.999,0 c -22.71,0 -41.186,18.476 -41.186,41.185 0,1.444 0.076,2.871 0.222,4.278 L 92.208,108.911 C 84.951,102.527 75.444,98.642 65.042,98.642 c -22.71,0 -41.186,18.476 -41.186,41.185 0,17.418 10.874,32.334 26.186,38.345 l 0,155.656 c -15.312,6.011 -26.186,20.927 -26.186,38.345 0,22.709 18.476,41.185 41.186,41.185 10.402,0 19.909,-3.884 27.166,-10.269 l 122.828,63.448 c -0.146,1.406 -0.222,2.833 -0.222,4.278 0,22.709 18.475,41.185 41.185,41.185 22.71,0 41.186,-18.476 41.186,-41.185 0,-1.444 -0.076,-2.871 -0.222,-4.277 l 122.828,-63.449 c 7.257,6.384 16.764,10.269 27.166,10.269 22.71,0 41.186,-18.476 41.186,-41.185 -10e-4,-17.418 -10.874,-32.333 -26.186,-38.345 z m -29.999,0 c -15.311,6.011 -26.186,20.927 -26.186,38.345 0,1.444 0.076,2.871 0.222,4.277 L 283.166,439.899 C 275.909,433.515 266.402,429.63 256,429.63 c -10.402,0 -19.909,3.884 -27.166,10.268 L 106.004,376.45 c 0.146,-1.406 0.222,-2.833 0.222,-4.277 0,-17.418 -10.874,-32.334 -26.185,-38.345 l 0,-155.656 c 15.311,-6.011 26.185,-20.927 26.185,-38.345 0,-1.444 -0.076,-2.871 -0.222,-4.277 L 228.832,72.102 c 7.258,6.384 16.765,10.268 27.167,10.268 10.402,0 19.909,-3.884 27.166,-10.268 l 122.828,63.448 c -0.146,1.406 -0.222,2.833 -0.222,4.277 0,17.418 10.874,32.334 26.186,38.345 l 0,155.656 z" />
      </g>
    </g>
    <g
       id="g17082"
       transform="matrix(0.2,0,0,0.2,-168.66712,15.745613)" />
    <g
       id="g17084"
       transform="matrix(0.2,0,0,0.2,-168.66712,15.745613)" />
    <g
       id="g17086"
       transform="matrix(0.2,0,0,0.2,-168.66712,15.745613)" />
    <g
       id="g17088"
       transform="matrix(0.2,0,0,0.2,-168.66712,15.745613)" />
    <g
       id="g17090"
       transform="matrix(0.2,0,0,0.2,-168.66712,15.745613)" />
    <g
       id="g17092"
       transform="matrix(0.2,0,0,0.2,-168.66712,15.745613)" />
    <g
       id="g17094"
       transform="matrix(0.2,0,0,0.2,-168.66712,15.745613)" />
    <g
       id="g17096"
       transform="matrix(0.2,0,0,0.2,-168.66712,15.745613)" />
    <g
       id="g17098"
       transform="matrix(0.2,0,0,0.2,-168.66712,15.745613)" />
    <g
       id="g17100"
       transform="matrix(0.2,0,0,0.2,-168.66712,15.745613)" />
    <g
       id="g17102"
       transform="matrix(0.2,0,0,0.2,-168.66712,15.745613)" />
    <g
       id="g17104"
       transform="matrix(0.2,0,0,0.2,-168.66712,15.745613)" />
    <g
       id="g17106"
       transform="matrix(0.2,0,0,0.2,-168.66712,15.745613)" />
    <g
       id="g17108"
       transform="matrix(0.2,0,0,0.2,-168.66712,15.745613)" />
    <g
       id="g17110"
       transform="matrix(0.2,0,0,0.2,-168.66712,15.745613)" />
  </g>
  <defs
     id="defs2449" />
</svg>
